<svg width="58" height="58" viewBox="0 0 58 58" fill="#F3EE66" xmlns="http://www.w3.org/2000/svg">
<path d="M53.7633 22.1805C53.5762 21.5863 53.2155 21.0616 52.7278 20.674C52.2401 20.2864 51.6475 20.0536 51.0264 20.0055L37.555 18.841C37.4735 18.8329 37.3958 18.803 37.3299 18.7544C37.2641 18.7057 37.2127 18.6401 37.1812 18.5646L31.9181 6.02205C31.6744 5.44988 31.2678 4.96199 30.749 4.61906C30.2301 4.27613 29.6219 4.09329 29 4.09329C28.3781 4.09329 27.7699 4.27613 27.251 4.61906C26.7322 4.96199 26.3256 5.44988 26.0819 6.02205L20.8188 18.5646C20.7873 18.6401 20.7359 18.7057 20.6701 18.7544C20.6042 18.803 20.5265 18.8329 20.445 18.841L6.97359 20.0055C6.35246 20.0536 5.75992 20.2864 5.27219 20.674C4.78445 21.0616 4.42384 21.5863 4.23672 22.1805C4.03854 22.7756 4.02123 23.416 4.18697 24.0209C4.35272 24.6258 4.69407 25.168 5.16789 25.5789L15.3881 34.4942C15.4507 34.5497 15.4972 34.6211 15.5227 34.7009C15.5482 34.7806 15.5518 34.8657 15.5331 34.9473L12.4609 48.2035C12.3177 48.8138 12.3586 49.4529 12.5783 50.04C12.7981 50.6271 13.1869 51.1359 13.6957 51.5022C14.1966 51.8718 14.7967 52.0827 15.4187 52.1077C16.0406 52.1328 16.6558 51.9708 17.1848 51.6427L28.7644 44.6192C28.8324 44.5771 28.9109 44.5548 28.9909 44.5548C29.071 44.5548 29.1494 44.5771 29.2175 44.6192L40.7971 51.6427C41.3316 51.9699 41.951 52.1315 42.5772 52.107C43.2034 52.0825 43.8083 51.8731 44.3156 51.5052C44.8228 51.1372 45.2098 50.6273 45.4275 50.0397C45.6453 49.4521 45.6841 48.8131 45.5391 48.2035L42.4759 34.9428C42.4573 34.8612 42.4609 34.776 42.4864 34.6963C42.5119 34.6166 42.5584 34.5452 42.6209 34.4896L52.8412 25.5744C53.3125 25.1627 53.6516 24.6209 53.8157 24.0169C53.9798 23.413 53.9615 22.7741 53.7633 22.1805ZM51.0445 23.5217L40.8243 32.437C40.3888 32.8159 40.065 33.3065 39.8877 33.8558C39.7105 34.4052 39.6865 34.9925 39.8184 35.5545L42.8815 48.8152C42.9041 48.9043 42.8991 48.9982 42.8672 49.0843C42.8352 49.1705 42.7778 49.245 42.7025 49.2978C42.6344 49.3523 42.5506 49.3837 42.4634 49.3874C42.3762 49.391 42.2901 49.3668 42.2177 49.3181L30.638 42.2947C30.1444 41.9946 29.5777 41.8359 29 41.8359C28.4223 41.8359 27.8556 41.9946 27.3619 42.2947L15.7823 49.3181C15.7099 49.3668 15.6238 49.391 15.5366 49.3874C15.4494 49.3837 15.3656 49.3523 15.2975 49.2978C15.2222 49.245 15.1648 49.1705 15.1328 49.0843C15.1009 48.9982 15.0959 48.9043 15.1185 48.8152L18.1816 35.5545C18.3135 34.9925 18.2895 34.4052 18.1123 33.8558C17.935 33.3065 17.6112 32.8159 17.1757 32.437L6.95547 23.5217C6.88557 23.4623 6.83537 23.383 6.8115 23.2944C6.78763 23.2058 6.79122 23.1121 6.8218 23.0256C6.84468 22.9394 6.89429 22.8627 6.96349 22.8066C7.0327 22.7504 7.11794 22.7176 7.20695 22.7129L20.6806 21.5484C21.2574 21.4992 21.8098 21.2932 22.2779 20.9525C22.7459 20.6118 23.1118 20.1496 23.3359 19.6158L28.599 7.0733C28.6356 6.99546 28.6936 6.92963 28.7662 6.88353C28.8388 6.83742 28.923 6.81294 29.0091 6.81294C29.0951 6.81294 29.1793 6.83742 29.2519 6.88353C29.3246 6.92963 29.3825 6.99546 29.4191 7.0733L34.6641 19.6158C34.8874 20.1483 35.252 20.6097 35.7183 20.9503C36.1846 21.2908 36.7351 21.4976 37.3103 21.5484L50.784 22.7129C50.873 22.7176 50.9582 22.7504 51.0274 22.8066C51.0966 22.8627 51.1463 22.9394 51.1691 23.0256C51.2008 23.1112 51.2058 23.2044 51.1836 23.2929C51.1613 23.3815 51.1129 23.4612 51.0445 23.5217Z" fill="#F3EE66"/>
</svg>
